# xmcd
#
# Track frame offsets: 
#        151
#        11868
#        32467
#        49333
#        69763
#        87171
#        103587
#        109993
#        126060
#        143580
#        161021
#        177327
#        214193
#        233761
#        250452
#        263682
#        275127
#        290119
#        314899
#
# Disc length: 4428 seconds
#
# Revision: 0
# Processed by: cddbd v1.4PL0 Copyright (c) Steve Scherf et al.
# Submitted via: ExactAudioCopy v0.90b3
#
DISCID=1f114a13
DTITLE=Emmylou Harris - Feeling Single, Seeing Double
DYEAR=1900
DGENRE=Country
TTITLE0=Feeling Single, Seeing Double
TTITLE1=Coat Of Many Colors
TTITLE2=Amarillo
TTITLE3=Together Again
TTITLE4=Return Of The Grievous Angel
TTITLE5=Bluebird Wine
TTITLE6=Hot Band Introduction
TTITLE7=Tonight The Bottle Let Me Down
TTITLE8=Boulder To Birmingham
TTITLE9=Cry One More Time
TTITLE10=Ooh Las Vegas
TTITLE11=Shop Around
TTITLE12=Hickory Wind
TTITLE13=Jambalaya
TTITLE14=If I Could Only Win Your Love
TTITLE15=Hot Band Introduction
TTITLE16=Wheels
TTITLE17=Til I Can Gain Control Again
TTITLE18=Hearts On Fire
EXTD=
EXTT0=
EXTT1=
EXTT2=
EXTT3=
EXTT4=
EXTT5=
EXTT6=
EXTT7=
EXTT8=
EXTT9=
EXTT10=
EXTT11=
EXTT12=
EXTT13=
EXTT14=
EXTT15=
EXTT16=
EXTT17=
EXTT18=
PLAYORDER=
